<?xml version="1.0" encoding="UTF-8" standalone="no"?>
<!DOCTYPE svg PUBLIC "-//W3C//DTD SVG 1.1//EN"
 "http://www.w3.org/Graphics/SVG/1.1/DTD/svg11.dtd">
<!-- Generated by graphviz version 12.1.1 (20240910.0053)
 -->
<!-- Title: model Pages: 1 -->
<svg width="445pt" height="864pt"
 viewBox="0.00 0.00 444.91 864.00" xmlns="http://www.w3.org/2000/svg" xmlns:xlink="http://www.w3.org/1999/xlink">
<g id="graph0" class="graph" transform="scale(8.94429 8.94429) rotate(0) translate(4 92.6)">
<title>model</title>
<polygon fill="white" stroke="none" points="-4,4 -4,-92.6 45.74,-92.6 45.74,4 -4,4"/>
<!-- 0 -->
<g id="node1" class="node">
<title>0</title>
<ellipse fill="black" stroke="black" cx="6.94" cy="-86.8" rx="1.8" ry="1.8"/>
</g>
<!-- 1 -->
<g id="node2" class="node">
<title>1</title>
<ellipse fill="black" stroke="black" cx="6.94" cy="-47.2" rx="1.8" ry="1.8"/>
</g>
<!-- 0&#45;&gt;1 -->
<g id="edge1" class="edge">
<title>0&#45;&gt;1</title>
<path fill="none" stroke="black" d="M5.36,-85.38C0.76,-82.8 -0.77,-69.03 0.77,-58.99"/>
<polygon fill="black" stroke="black" points="3.92,-60.51 4.83,-49.95 -2.46,-57.64 3.92,-60.51"/>
</g>
<!-- 2 -->
<g id="node3" class="node">
<title>2</title>
<ellipse fill="black" stroke="black" cx="21.94" cy="-7.6" rx="1.8" ry="1.8"/>
</g>
<!-- 0&#45;&gt;2 -->
<g id="edge2" class="edge">
<title>0&#45;&gt;2</title>
<path fill="none" stroke="black" d="M7.37,-84.67C9.02,-80.22 15.11,-63.39 17.94,-49 19.75,-39.85 20.75,-29.36 21.31,-21.36"/>
<polygon fill="black" stroke="black" points="24.8,-21.55 21.83,-11.38 17.81,-21.18 24.8,-21.55"/>
</g>
<!-- 1&#45;&gt;0 -->
<g id="edge3" class="edge">
<title>1&#45;&gt;0</title>
<path fill="none" stroke="black" d="M8.43,-48.57C13.12,-51.02 14.68,-65.04 13.09,-75.16"/>
<polygon fill="black" stroke="black" points="10.03,-73.44 9.14,-83.99 16.42,-76.29 10.03,-73.44"/>
</g>
<!-- 1&#45;&gt;2 -->
<g id="edge4" class="edge">
<title>1&#45;&gt;2</title>
<path fill="none" stroke="black" d="M7.31,-45.27C8.7,-41.78 13.72,-29.21 17.49,-19.75"/>
<polygon fill="black" stroke="black" points="20.62,-21.36 21.07,-10.77 14.12,-18.76 20.62,-21.36"/>
</g>
<!-- 2&#45;&gt;2 -->
<g id="edge5" class="edge">
<title>2&#45;&gt;2</title>
<path fill="none" stroke="black" d="M23.25,-9.34C30.14,-17.46 41.74,-16.88 41.74,-7.6 41.74,-2.23 37.86,0.23 33.26,-0.23"/>
<polygon fill="black" stroke="black" points="31.57,2.84 24.57,-5.12 35,-3.26 31.57,2.84"/>
</g>
</g>
</svg>
