<?xml version="1.0" encoding="UTF-8" standalone="no"?>
<!DOCTYPE svg PUBLIC "-//W3C//DTD SVG 1.1//EN"
 "http://www.w3.org/Graphics/SVG/1.1/DTD/svg11.dtd">
<!-- Generated by graphviz version 12.1.1 (20240910.0053)
 -->
<!-- Title: model Pages: 1 -->
<svg width="860pt" height="864pt"
 viewBox="0.00 0.00 860.12 864.00" xmlns="http://www.w3.org/2000/svg" xmlns:xlink="http://www.w3.org/1999/xlink">
<g id="graph0" class="graph" transform="scale(15.1584 15.1584) rotate(0) translate(4 53)">
<title>model</title>
<polygon fill="white" stroke="none" points="-4,4 -4,-53 52.74,-53 52.74,4 -4,4"/>
<!-- 0 -->
<g id="node1" class="node">
<title>0</title>
<ellipse fill="black" stroke="black" cx="6.94" cy="-47.2" rx="1.8" ry="1.8"/>
</g>
<!-- 1 -->
<g id="node2" class="node">
<title>1</title>
<ellipse fill="black" stroke="black" cx="6.94" cy="-7.6" rx="1.8" ry="1.8"/>
</g>
<!-- 0&#45;&gt;1 -->
<g id="edge1" class="edge">
<title>0&#45;&gt;1</title>
<path fill="none" stroke="black" d="M5.36,-45.78C0.76,-43.2 -0.77,-29.43 0.77,-19.39"/>
<polygon fill="black" stroke="black" points="3.92,-20.91 4.83,-10.35 -2.46,-18.04 3.92,-20.91"/>
</g>
<!-- 2 -->
<g id="node3" class="node">
<title>2</title>
<ellipse fill="black" stroke="black" cx="28.94" cy="-7.6" rx="1.8" ry="1.8"/>
</g>
<!-- 0&#45;&gt;2 -->
<g id="edge2" class="edge">
<title>0&#45;&gt;2</title>
<path fill="none" stroke="black" d="M7.49,-45.27C9.57,-41.7 17.23,-28.62 22.8,-19.09"/>
<polygon fill="black" stroke="black" points="25.7,-21.07 27.73,-10.67 19.66,-17.54 25.7,-21.07"/>
</g>
<!-- 1&#45;&gt;0 -->
<g id="edge3" class="edge">
<title>1&#45;&gt;0</title>
<path fill="none" stroke="black" d="M8.43,-8.97C13.12,-11.42 14.68,-25.44 13.09,-35.56"/>
<polygon fill="black" stroke="black" points="10.03,-33.84 9.14,-44.39 16.42,-36.69 10.03,-33.84"/>
</g>
<!-- 2&#45;&gt;2 -->
<g id="edge4" class="edge">
<title>2&#45;&gt;2</title>
<path fill="none" stroke="black" d="M30.25,-9.34C37.14,-17.46 48.74,-16.88 48.74,-7.6 48.74,-2.23 44.86,0.23 40.26,-0.23"/>
<polygon fill="black" stroke="black" points="38.57,2.84 31.57,-5.12 42,-3.26 38.57,2.84"/>
</g>
</g>
</svg>
