<?xml version="1.0" encoding="UTF-8" standalone="no"?>
<!DOCTYPE svg PUBLIC "-//W3C//DTD SVG 1.1//EN"
 "http://www.w3.org/Graphics/SVG/1.1/DTD/svg11.dtd">
<!-- Generated by graphviz version 12.1.1 (20240910.0053)
 -->
<!-- Title: model Pages: 1 -->
<svg width="508pt" height="864pt"
 viewBox="0.00 0.00 507.52 864.00" xmlns="http://www.w3.org/2000/svg" xmlns:xlink="http://www.w3.org/1999/xlink">
<g id="graph0" class="graph" transform="scale(8.94429 8.94429) rotate(0) translate(4 92.6)">
<title>model</title>
<polygon fill="white" stroke="none" points="-4,4 -4,-92.6 52.74,-92.6 52.74,4 -4,4"/>
<!-- 0 -->
<g id="node1" class="node">
<title>0</title>
<ellipse fill="black" stroke="black" cx="6.94" cy="-86.8" rx="1.8" ry="1.8"/>
</g>
<!-- 1 -->
<g id="node2" class="node">
<title>1</title>
<ellipse fill="black" stroke="black" cx="6.94" cy="-47.2" rx="1.8" ry="1.8"/>
</g>
<!-- 0&#45;&gt;1 -->
<g id="edge1" class="edge">
<title>0&#45;&gt;1</title>
<path fill="none" stroke="black" d="M5.36,-85.38C0.76,-82.8 -0.77,-69.03 0.77,-58.99"/>
<polygon fill="black" stroke="black" points="3.92,-60.51 4.83,-49.95 -2.46,-57.64 3.92,-60.51"/>
</g>
<!-- 2 -->
<g id="node3" class="node">
<title>2</title>
<ellipse fill="black" stroke="black" cx="28.94" cy="-47.2" rx="1.8" ry="1.8"/>
</g>
<!-- 0&#45;&gt;2 -->
<g id="edge2" class="edge">
<title>0&#45;&gt;2</title>
<path fill="none" stroke="black" d="M7.49,-84.87C9.57,-81.3 17.23,-68.22 22.8,-58.69"/>
<polygon fill="black" stroke="black" points="25.7,-60.67 27.73,-50.27 19.66,-57.14 25.7,-60.67"/>
</g>
<!-- 1&#45;&gt;0 -->
<g id="edge3" class="edge">
<title>1&#45;&gt;0</title>
<path fill="none" stroke="black" d="M8.43,-48.57C13.12,-51.02 14.68,-65.04 13.09,-75.16"/>
<polygon fill="black" stroke="black" points="10.03,-73.44 9.14,-83.99 16.42,-76.29 10.03,-73.44"/>
</g>
<!-- 3 -->
<g id="node4" class="node">
<title>3</title>
<ellipse fill="black" stroke="black" cx="6.94" cy="-7.6" rx="1.8" ry="1.8"/>
</g>
<!-- 1&#45;&gt;3 -->
<g id="edge4" class="edge">
<title>1&#45;&gt;3</title>
<path fill="none" stroke="black" d="M6.94,-44.95C6.94,-41.29 6.94,-30.31 6.94,-21.37"/>
<polygon fill="black" stroke="black" points="10.44,-21.41 6.94,-11.41 3.44,-21.41 10.44,-21.41"/>
</g>
<!-- 2&#45;&gt;2 -->
<g id="edge5" class="edge">
<title>2&#45;&gt;2</title>
<path fill="none" stroke="black" d="M30.25,-48.94C37.14,-57.06 48.74,-56.48 48.74,-47.2 48.74,-41.83 44.86,-39.37 40.26,-39.83"/>
<polygon fill="black" stroke="black" points="38.57,-36.76 31.57,-44.72 42,-42.86 38.57,-36.76"/>
</g>
<!-- 3&#45;&gt;3 -->
<g id="edge6" class="edge">
<title>3&#45;&gt;3</title>
<path fill="none" stroke="black" d="M8.25,-9.34C15.14,-17.46 26.74,-16.88 26.74,-7.6 26.74,-2.23 22.86,0.23 18.26,-0.23"/>
<polygon fill="black" stroke="black" points="16.57,2.84 9.57,-5.12 20,-3.26 16.57,2.84"/>
</g>
</g>
</svg>
