<?xml version="1.0" encoding="UTF-8" standalone="no"?>
<!DOCTYPE svg PUBLIC "-//W3C//DTD SVG 1.1//EN"
 "http://www.w3.org/Graphics/SVG/1.1/DTD/svg11.dtd">
<!-- Generated by graphviz version 12.1.1 (20240910.0053)
 -->
<!-- Title: model Pages: 1 -->
<svg width="340pt" height="864pt"
 viewBox="0.00 0.00 340.02 864.00" xmlns="http://www.w3.org/2000/svg" xmlns:xlink="http://www.w3.org/1999/xlink">
<g id="graph0" class="graph" transform="scale(6.34371 6.34371) rotate(0) translate(4 132.2)">
<title>model</title>
<polygon fill="white" stroke="none" points="-4,4 -4,-132.2 49.6,-132.2 49.6,4 -4,4"/>
<!-- 0 -->
<g id="node1" class="node">
<title>0</title>
<ellipse fill="black" stroke="black" cx="10.8" cy="-126.4" rx="1.8" ry="1.8"/>
</g>
<!-- 1 -->
<g id="node2" class="node">
<title>1</title>
<ellipse fill="black" stroke="black" cx="10.8" cy="-86.8" rx="1.8" ry="1.8"/>
</g>
<!-- 0&#45;&gt;1 -->
<g id="edge1" class="edge">
<title>0&#45;&gt;1</title>
<path fill="none" stroke="black" d="M9.22,-124.98C4.62,-122.4 3.09,-108.63 4.63,-98.59"/>
<polygon fill="black" stroke="black" points="7.78,-100.11 8.69,-89.55 1.4,-97.24 7.78,-100.11"/>
</g>
<!-- 2 -->
<g id="node3" class="node">
<title>2</title>
<ellipse fill="black" stroke="black" cx="25.8" cy="-7.6" rx="1.8" ry="1.8"/>
</g>
<!-- 0&#45;&gt;2 -->
<g id="edge2" class="edge">
<title>0&#45;&gt;2</title>
<path fill="none" stroke="black" d="M11.35,-124.29C14.79,-117.31 33.04,-78.54 30.8,-45.4 30.25,-37.22 29.01,-28.08 27.9,-20.96"/>
<polygon fill="black" stroke="black" points="31.38,-20.51 26.26,-11.23 24.47,-21.67 31.38,-20.51"/>
</g>
<!-- 1&#45;&gt;0 -->
<g id="edge3" class="edge">
<title>1&#45;&gt;0</title>
<path fill="none" stroke="black" d="M12.29,-88.17C16.98,-90.62 18.53,-104.64 16.95,-114.76"/>
<polygon fill="black" stroke="black" points="13.89,-113.04 13,-123.59 20.28,-115.89 13.89,-113.04"/>
</g>
<!-- 3 -->
<g id="node4" class="node">
<title>3</title>
<ellipse fill="black" stroke="black" cx="1.8" cy="-47.2" rx="1.8" ry="1.8"/>
</g>
<!-- 1&#45;&gt;3 -->
<g id="edge4" class="edge">
<title>1&#45;&gt;3</title>
<path fill="none" stroke="black" d="M10.5,-84.55C9.59,-80.76 6.81,-69.12 4.63,-60.02"/>
<polygon fill="black" stroke="black" points="8.06,-59.32 2.33,-50.41 1.25,-60.95 8.06,-59.32"/>
</g>
<!-- 2&#45;&gt;2 -->
<g id="edge5" class="edge">
<title>2&#45;&gt;2</title>
<path fill="none" stroke="black" d="M27.11,-9.34C34,-17.46 45.6,-16.88 45.6,-7.6 45.6,-2.23 41.72,0.23 37.12,-0.23"/>
<polygon fill="black" stroke="black" points="35.43,2.84 28.43,-5.12 38.86,-3.26 35.43,2.84"/>
</g>
<!-- 3&#45;&gt;2 -->
<g id="edge6" class="edge">
<title>3&#45;&gt;2</title>
<path fill="none" stroke="black" d="M2.39,-45.27C4.7,-41.66 13.22,-28.31 19.31,-18.76"/>
<polygon fill="black" stroke="black" points="22.07,-20.95 24.5,-10.64 16.16,-17.19 22.07,-20.95"/>
</g>
<!-- 3&#45;&gt;3 -->
<g id="edge7" class="edge">
<title>3&#45;&gt;3</title>
<path fill="none" stroke="black" d="M3.11,-48.94C10,-57.06 21.6,-56.48 21.6,-47.2 21.6,-41.83 17.72,-39.37 13.12,-39.83"/>
<polygon fill="black" stroke="black" points="11.43,-36.76 4.43,-44.72 14.86,-42.86 11.43,-36.76"/>
</g>
</g>
</svg>
