<?xml version="1.0" encoding="UTF-8" standalone="no"?>
<!DOCTYPE svg PUBLIC "-//W3C//DTD SVG 1.1//EN"
 "http://www.w3.org/Graphics/SVG/1.1/DTD/svg11.dtd">
<!-- Generated by graphviz version 12.1.1 (20240910.0053)
 -->
<!-- Title: model Pages: 1 -->
<svg width="527pt" height="864pt"
 viewBox="0.00 0.00 527.16 864.00" xmlns="http://www.w3.org/2000/svg" xmlns:xlink="http://www.w3.org/1999/xlink">
<g id="graph0" class="graph" transform="scale(15.1736 15.1736) rotate(0) translate(4 52.94)">
<title>model</title>
<polygon fill="white" stroke="none" points="-4,4 -4,-52.94 30.74,-52.94 30.74,4 -4,4"/>
<!-- 0 -->
<g id="node1" class="node">
<title>0</title>
<ellipse fill="black" stroke="black" cx="6.94" cy="-41.4" rx="1.8" ry="1.8"/>
</g>
<!-- 0&#45;&gt;0 -->
<g id="edge1" class="edge">
<title>0&#45;&gt;0</title>
<path fill="none" stroke="black" d="M8.25,-43.14C15.14,-51.26 26.74,-50.68 26.74,-41.4 26.74,-36.03 22.86,-33.58 18.26,-34.03"/>
<polygon fill="black" stroke="black" points="16.57,-30.96 9.57,-38.92 20,-37.06 16.57,-30.96"/>
</g>
<!-- 1 -->
<g id="node2" class="node">
<title>1</title>
<ellipse fill="black" stroke="black" cx="6.94" cy="-1.8" rx="1.8" ry="1.8"/>
</g>
<!-- 0&#45;&gt;1 -->
<g id="edge2" class="edge">
<title>0&#45;&gt;1</title>
<path fill="none" stroke="black" d="M5.36,-39.98C0.76,-37.41 -0.77,-23.63 0.77,-13.59"/>
<polygon fill="black" stroke="black" points="3.92,-15.11 4.83,-4.55 -2.46,-12.24 3.92,-15.11"/>
</g>
<!-- 1&#45;&gt;0 -->
<g id="edge3" class="edge">
<title>1&#45;&gt;0</title>
<path fill="none" stroke="black" d="M8.43,-3.17C13.12,-5.62 14.68,-19.65 13.09,-29.76"/>
<polygon fill="black" stroke="black" points="10.03,-28.04 9.14,-38.6 16.42,-30.9 10.03,-28.04"/>
</g>
</g>
</svg>
