<?xml version="1.0" encoding="UTF-8"?>
<svg xmlns="http://www.w3.org/2000/svg" xmlns:xlink="http://www.w3.org/1999/xlink" width="302" height="277" viewBox="0 0 302 277">
<rect x="-30.2" y="-27.7" width="362.4" height="332.4" fill="rgb(100%, 100%, 100%)" fill-opacity="1"/>
<path fill="none" stroke-width="33.14082" stroke-linecap="round" stroke-linejoin="round" stroke="rgb(0%, 0%, 0%)" stroke-opacity="1" stroke-miterlimit="10" d="M 645.512305 567.632313 C 631.332619 614.131657 504.302684 616.609522 361.782516 573.160958 C 219.255186 529.705233 115.21353 456.787272 129.393216 410.287928 C 143.565741 363.781422 270.595676 361.310719 413.123006 404.759282 C 555.643174 448.207846 659.68483 521.132969 645.512305 567.632313 Z M 645.512305 567.632313 " transform="matrix(0.545455, 0, 0, 0.545455, -60, -62.52)"/>
<path fill="none" stroke-width="33.14082" stroke-linecap="round" stroke-linejoin="round" stroke="rgb(0%, 0%, 0%)" stroke-opacity="1" stroke-miterlimit="10" d="M 262.70375 399.545741 C 260.669896 404.952642 259.31638 408.955897 258.636042 411.548344 C 257.955703 414.140792 257.132136 417.750167 256.165339 422.376468 C 255.198542 427.009931 254.468074 430.719566 253.966771 433.505373 C 253.472631 436.29118 253.042943 439.234539 252.684871 442.328289 C 252.319636 445.414877 251.990209 448.680502 251.682266 452.118002 C 251.374324 455.562663 250.923152 458.763834 250.314428 461.743001 C 249.712866 464.715006 248.452449 467.035318 246.526017 468.696776 " transform="matrix(0.545455, 0, 0, 0.545455, -60, -62.52)"/>
<path fill="none" stroke-width="33.14082" stroke-linecap="round" stroke-linejoin="round" stroke="rgb(0%, 0%, 0%)" stroke-opacity="1" stroke-miterlimit="10" d="M 159.027328 411.777511 C 156.843083 411.319178 155.016912 413.095219 153.548813 417.098474 C 152.531886 419.884281 151.615219 423.17139 150.791652 426.95264 C 149.975245 430.733889 149.430975 433.906415 149.173162 436.470217 C 148.908188 439.04118 148.879542 440.537925 149.094386 440.974774 C 149.302068 441.411623 149.917954 440.795737 150.927719 439.134279 C 151.937485 437.465659 153.061834 434.851727 154.300766 431.27816 C 155.546859 427.704593 156.735661 424.166833 157.874333 420.66488 C 159.020166 417.155766 160.051416 414.212406 160.975244 411.82048 C 161.891911 409.428553 162.450505 408.075037 162.636702 407.759933 C 162.8229 407.437668 162.944645 407.229985 163.001937 407.129725 C 163.059228 407.029465 163.06639 407.265793 163.009098 407.838709 C 162.958968 408.418787 162.851546 409.607589 162.679671 411.426599 C 162.514958 413.238448 162.121078 416.167484 161.505192 420.199385 C 160.882145 424.238447 160.287744 428.764488 159.714828 433.78467 C 159.141911 438.804852 158.755192 443.481284 158.554672 447.813966 C 158.346989 452.146647 158.490219 454.989746 158.977198 456.350423 C 159.471338 457.7111 160.488265 456.901855 162.03514 453.922689 C 163.574853 450.950684 165.250635 446.259929 167.04816 439.850425 C 168.845686 433.448082 170.664696 427.0529 172.490868 420.66488 C 174.31704 414.27686 175.971337 409.013188 177.439435 404.866704 C 178.914696 400.727382 179.802716 398.371262 180.117821 397.812669 C 180.432925 397.254075 180.640607 396.881679 180.748029 396.68832 C 180.848289 396.502122 180.898419 396.588059 180.884096 396.931809 C 180.876935 397.282721 180.848289 397.984544 180.812482 399.030116 C 180.776675 400.075689 180.440086 402.524908 179.802716 406.37061 C 179.165347 410.216313 178.470685 414.463058 177.718732 419.096521 C 176.959618 423.737145 176.336571 428.513837 175.84243 433.44092 C 175.355451 438.368003 175.083316 442.607586 175.033186 446.159669 C 174.983055 449.711752 175.570295 451.602377 176.794904 451.831543 C 178.026675 452.067871 179.62368 450.506674 181.600242 447.140789 C 183.576805 443.782065 185.725242 439.034019 188.059877 432.882327 C 190.387351 426.730634 192.578757 420.521651 194.634095 414.248214 C 196.689433 407.974777 198.350892 402.625168 199.604147 398.199387 C 200.864563 393.780768 201.702454 390.959154 202.12498 389.734544 C 202.547506 388.509935 202.769511 387.858242 202.805318 387.765144 C 202.833964 387.672045 202.819641 387.829597 202.755188 388.230638 C 202.690735 388.624518 202.22524 391.517747 201.351542 396.896002 C 200.477845 402.274257 199.546855 408.146652 198.544251 414.527511 C 197.541647 420.901208 196.546204 427.883629 195.550762 435.460451 C 194.548158 443.044435 193.731751 450.492351 193.08722 457.81136 C 192.442689 465.13037 192.406882 470.157713 192.972637 472.886229 C 193.545554 475.621906 194.813132 475.478676 196.789694 472.456541 C 198.759095 469.434406 200.742818 464.39274 202.733704 457.331543 C 204.73175 450.263184 206.622375 442.299643 208.405578 433.448082 C 210.195943 424.59652 211.778625 416.78337 213.153625 410.001469 C 214.528624 403.219569 215.645812 398.371262 216.498025 395.449388 C 217.3574 392.527513 217.794249 391.295742 217.815733 391.746914 C 217.837218 392.198086 217.887348 393.336758 217.966124 395.148606 C 218.052062 396.960455 217.937478 400.369309 217.629536 405.368006 C 217.328754 410.366704 217.035135 416.110193 216.770161 422.598473 C 216.498025 429.079593 216.340473 435.8973 216.283181 443.051596 C 216.233051 450.198731 216.555317 456.515137 217.271463 461.98649 C 217.980447 467.457844 219.455707 470.272297 221.682921 470.429849 C 223.910134 470.587401 226.244769 468.066568 228.679665 462.881672 C 231.121722 457.696777 233.270159 450.993653 235.132138 442.772299 C 236.986955 434.558108 238.462216 426.651858 239.543596 419.067875 C 240.632137 411.483891 241.255184 405.869308 241.427059 402.231288 C 241.598934 398.600429 241.570288 396.330247 241.341122 395.427903 C 241.119117 394.52556 240.88995 394.103034 240.660783 394.160325 C 240.424455 394.217617 240.266903 395.327643 240.188127 397.483242 C 240.109351 399.646002 239.930315 403.441574 239.651018 408.869959 C 239.371721 414.298344 238.949195 420.908369 238.38344 428.700035 C 237.824846 436.498863 237.137346 444.841961 236.328101 453.736491 C 235.518857 462.62386 234.981747 469.319823 234.709612 473.802895 C 234.437477 478.293129 234.272763 480.907061 234.229794 481.651853 C 234.186826 482.396644 234.201148 482.71891 234.279924 482.625811 C 234.365862 482.532712 234.645159 482.210447 235.132138 481.659014 C 235.619117 481.100421 236.163388 478.228676 236.750627 473.043781 C 237.345028 467.858886 237.731747 461.800292 237.910784 454.875163 C 238.08982 447.950033 238.068336 440.716961 237.84633 433.168785 C 237.631487 425.620608 237.251929 418.401859 236.721982 411.512537 C 236.192034 404.616053 235.848284 399.474127 235.697893 396.072434 C 235.547502 392.677903 235.461565 390.772956 235.440081 390.371914 C 235.418596 389.963711 235.404273 389.834805 235.397112 389.970872 C 235.382789 390.114102 235.325497 390.772956 235.225237 391.961758 C 235.124976 393.143398 235.067685 400.039882 235.060523 412.644047 C 235.060523 425.248213 235.096331 436.004722 235.18943 444.906414 C 235.282529 453.808106 235.719377 462.108235 236.499976 469.792479 C 237.280575 477.483885 238.404924 482.246254 239.8587 484.101071 C 241.319637 485.948727 242.773413 485.261228 244.241512 482.03141 C 245.702449 478.801593 246.876928 473.788572 247.779272 467.006672 C 248.674454 460.21761 249.426407 452.45459 250.020808 443.724773 C 250.622371 434.987795 251.15948 426.766442 251.632136 419.067875 C 252.111954 411.362146 252.598933 405.525558 253.100235 401.550949 C 253.601537 397.57634 253.981094 395.377773 254.238907 394.955247 C 254.496719 394.532721 254.94073 395.062669 255.563777 396.545091 C 256.193985 398.020351 257.060521 400.37647 258.170547 403.613449 C 259.287734 406.850428 260.634089 410.438318 262.202448 414.384281 C 263.777968 418.323083 265.60414 422.004072 267.688124 425.420088 C 269.764947 428.843264 272.013645 432.30941 274.434217 435.832847 C 276.861951 439.356284 279.160779 443.044435 281.345024 446.897299 C 283.53643 450.757325 285.169242 454.388184 286.257784 457.797038 C 287.346325 461.205891 287.990857 464.170735 288.191377 466.691568 C 288.391898 469.212401 287.947888 470.565916 286.859346 470.766437 C 285.770805 470.959797 284.037732 469.584797 281.652967 466.634276 C 279.26104 463.683756 276.546847 459.988444 273.496066 455.541178 C 270.438124 451.086752 267.37302 445.944825 264.27927 440.115399 C 261.185521 434.278811 259.101537 428.685712 258.012995 423.336103 C 256.924453 417.993656 256.996068 413.360193 258.227839 409.442876 C 259.466771 405.525558 261.32875 402.653814 263.820937 400.820481 C 266.313124 398.987148 268.898411 398.342616 271.576796 398.886887 C 274.255181 399.423997 277.205701 401.636887 280.435519 405.518397 C 283.665336 409.407068 287.009737 414.627771 290.483044 421.180505 C 293.949189 427.7404 296.806611 435.002118 299.040986 442.958497 C 301.268199 450.914877 302.786428 459.093261 303.58135 467.500813 C 304.376272 475.908364 304.813121 482.833493 304.891897 488.283363 C 304.970673 493.733232 304.891897 496.776851 304.655568 497.414221 C 304.41924 498.044429 303.860647 496.146643 302.972626 491.713701 C 302.084605 487.280759 300.802704 480.412921 299.126923 471.110187 C 297.451142 461.800292 295.86846 452.519043 294.378877 443.26644 C 292.889294 434.013837 291.843721 426.673343 291.24932 421.266442 C 290.654919 415.85238 290.547497 412.228683 290.934216 410.402511 C 291.320934 408.576339 292.194632 407.244308 293.555309 406.406418 C 294.915986 405.561366 296.591767 405.368006 298.582652 405.819178 C 300.573538 406.27035 302.822235 408.38298 305.328746 412.142745 C 307.842417 415.90251 310.434865 420.76514 313.106088 426.737796 C 315.784474 432.70329 318.047494 439.556805 319.902312 447.284018 C 321.757129 455.011231 322.93877 462.67399 323.454395 470.272297 C 323.97002 477.877765 324.371061 482.869301 324.664681 485.261228 C 324.958301 487.645993 325.123014 488.949378 325.15166 489.178545 C 325.180306 489.407711 325.20179 489.465003 325.223275 489.35042 C 325.237598 489.242998 325.34502 488.61279 325.538379 487.452634 C 325.731738 486.299639 325.34502 482.525551 324.378223 476.137531 C 323.411426 469.74951 322.057911 462.57373 320.310515 454.595866 C 318.563119 446.625164 316.722625 439.112795 314.78187 432.051597 C 312.848276 424.997562 311.265594 419.712406 310.055308 416.188969 C 308.83786 412.672693 308.164683 410.638839 308.035776 410.087407 C 307.914032 409.528813 307.835256 409.206548 307.813771 409.106287 C 307.792287 409.006027 307.813771 409.006027 307.878224 409.113449 C 307.942678 409.213709 308.157521 409.557459 308.522756 410.137537 C 308.88799 410.710454 309.632782 412.493657 310.75713 415.472823 C 311.874318 418.451989 313.11325 422.48389 314.452443 427.568525 C 315.798797 432.65316 317.166635 438.790529 318.555958 445.973471 C 319.945281 453.156413 321.184213 460.582845 322.287077 468.252766 C 323.38278 475.922687 324.249317 480.470212 324.872363 481.888181 C 325.49541 483.30615 325.946582 484.315915 326.204394 484.917478 C 326.469368 485.511879 326.705696 485.196774 326.906217 483.965004 C 327.1139 482.726072 327.45765 480.642087 327.944629 477.713051 C 328.424446 474.784015 328.653613 469.040526 328.632129 460.475423 C 328.610644 451.917481 328.073535 443.402508 327.020801 434.937665 C 325.968066 426.472822 324.743457 419.433109 323.354134 413.832849 C 321.95765 408.232589 321.069629 404.881027 320.690072 403.785324 C 320.310515 402.689621 320.109994 402.109543 320.081348 402.04509 L 320.059864 401.973475 L 320.059864 401.987798 C 320.067025 402.016444 320.13864 402.252772 320.267546 402.711106 C 320.403614 403.169439 321.27015 404.723475 322.874317 407.373214 C 324.471322 410.022954 326.505176 414.241052 328.968717 420.013187 C 331.43942 425.792483 333.917284 433.118655 336.40231 441.984539 C 338.894497 450.857585 341.343716 460.525553 343.749966 470.988442 C 346.156215 481.451332 348.63408 488.935055 351.176397 493.425289 C 353.725876 497.922685 356.160772 499.820471 358.481084 499.132971 C 360.801396 498.445471 362.756474 496.003414 364.339156 491.799638 C 365.921838 487.603024 366.852828 481.222165 367.124963 472.649901 C 367.40426 464.084797 367.046187 455.183106 366.057906 445.944825 C 365.069625 436.706545 363.909469 428.814619 362.577438 422.261885 C 361.245407 415.716313 360.321579 411.827641 359.798792 410.603032 C 359.276006 409.378423 358.882126 409.378423 358.624313 410.59587 C 358.359339 411.813318 358.230433 414.104985 358.230433 417.456547 C 358.237594 420.81527 358.595667 425.405765 359.318974 431.220868 C 360.042282 437.035972 360.994756 443.524253 362.176396 450.692872 C 363.358037 457.861491 364.768844 465.631672 366.408818 474.017739 C 368.055953 482.403806 369.710249 488.806149 371.371708 493.239091 C 373.033166 497.672034 374.587202 499.870601 376.040978 499.834794 C 377.494754 499.798986 378.518842 498.581539 379.120405 496.175289 C 379.714806 493.776201 379.535769 490.238441 378.568973 485.56917 C 377.609337 480.892738 376.005171 475.500161 373.756473 469.369953 C 371.507775 463.246907 368.621708 456.493652 365.105432 449.117351 C 361.581995 441.74105 358.31637 435.231285 355.294235 429.580895 C 352.279262 423.930504 350.424444 420.535974 349.744106 419.397302 C 349.063767 418.251469 348.626918 417.521 348.433559 417.205896 L 348.268845 416.919437 L 348.354783 417.048344 C 348.490851 417.263187 348.798793 417.750167 349.285772 418.516443 C 349.772751 419.282718 350.624965 420.944177 351.835251 423.500817 C 353.045538 426.064619 354.313116 429.480634 355.630824 433.748863 C 356.948532 438.024253 358.108688 442.242352 359.111292 446.41032 C 360.113896 450.578288 360.744105 453.53597 361.009078 455.297689 C 361.266891 457.059407 361.402959 457.983235 361.417282 458.083496 L 361.424443 458.112142 L 361.338506 457.7111 C 361.266891 457.36735 360.615198 454.080241 359.369105 447.842611 C 358.123011 441.604982 356.712204 435.152509 355.136683 428.47803 C 353.561163 421.803552 351.391241 415.035974 348.626918 408.160975 C 345.869757 401.293137 343.484992 396.566575 341.472622 393.995612 C 339.460253 391.424648 338.085253 390.185716 337.340461 390.285977 C 336.595669 390.386237 336.216112 391.567878 336.208951 393.830898 C 336.194628 396.093919 336.996711 400.132981 338.608039 405.955246 C 340.226528 411.770349 342.253221 418.237146 344.688117 425.348473 C 347.130174 432.459801 349.966111 439.993654 353.20309 447.950033 C 356.440069 455.899251 359.705693 462.315917 362.992802 467.185708 C 366.287073 472.048338 369.201786 474.90576 371.744103 475.750812 C 374.293582 476.595864 376.456343 476.552895 378.239546 475.621906 C 380.022748 474.690916 381.333295 472.678546 382.171186 469.59912 C 383.001915 466.512531 383.481732 462.387532 383.596316 457.224121 C 383.710899 452.06071 383.596316 445.994955 383.245404 439.012534 C 382.894493 432.030113 382.600873 425.785322 382.357384 420.263838 C 382.113894 414.742354 381.977826 411.433761 381.956342 410.338058 C 381.934858 409.235193 381.920535 408.647954 381.920535 408.569178 C 381.920535 408.490402 381.927696 408.511886 381.949181 408.62647 C 381.970665 408.741053 382.135378 409.629074 382.43616 411.276209 C 382.744102 412.930506 383.402956 415.673344 384.427045 419.497562 C 385.443972 423.328942 386.604128 427.69027 387.907513 432.595868 C 389.203737 437.494305 390.657513 443.02295 392.254518 449.174643 C 393.851523 455.319173 395.448528 461.657063 397.045533 468.17399 C 398.642538 474.690916 400.103476 479.245603 401.428345 481.838051 C 402.760376 484.430498 404.013631 485.082191 405.202433 483.778806 C 406.384074 482.475421 407.143188 479.102374 407.465454 473.645343 C 407.794881 468.188313 407.780558 462.058105 407.422485 455.25472 C 407.064412 448.444174 406.212199 441.726727 404.858683 435.080894 C 403.505168 428.442223 402.251913 424.030765 401.091757 421.832197 C 399.938762 419.640791 399.179648 418.666833 398.828736 418.903161 C 398.477825 419.139489 398.535116 420.313968 399.007773 422.426598 C 399.480429 424.539228 401.507121 430.647952 405.095012 440.75993 C 408.682902 450.871908 411.726521 459.451334 414.240193 466.498209 C 416.746703 473.545083 419.210245 479.840004 421.616494 485.390134 C 424.029906 490.940263 426.343056 494.60693 428.555947 496.390133 C 430.775999 498.173336 432.788368 498.030106 434.600217 495.967607 C 436.412066 493.897945 437.736935 489.916175 438.574826 484.022295 C 439.419878 478.121254 439.92118 471.12451 440.093055 463.024902 C 440.26493 454.918132 439.92118 446.811362 439.076128 438.690269 C 438.231076 430.569176 437.41467 424.832848 436.641232 421.474125 C 435.867795 418.122562 435.259071 416.332198 434.822222 416.117354 C 434.385373 415.909672 434.098915 416.461104 433.962847 417.793135 C 433.82678 419.118005 434.055946 421.481286 434.643186 424.875817 C 435.223264 428.270348 436.211545 432.875165 437.586545 438.690269 C 438.968706 444.512534 440.60868 451.244304 442.513628 458.892741 C 444.411414 466.541177 446.416622 474.21826 448.529252 481.938311 C 450.641882 489.651201 452.69722 495.631018 454.70959 499.870601 C 456.714798 504.117345 458.476517 506.566564 459.994746 507.225418 C 461.512975 507.891434 462.587193 507.232579 463.217402 505.27034 C 463.84761 503.300939 463.940709 500.228674 463.496698 496.046383 C 463.052688 491.871253 462.150344 487.381019 460.782506 482.590004 C 459.414668 477.798989 457.839147 473.201333 456.063105 468.804198 C 454.279902 464.407063 452.518184 460.432454 450.785111 456.880371 C 449.044877 453.321127 447.841752 451.000814 447.175737 449.919434 C 446.50256 448.830893 446.072872 448.12907 445.879513 447.813966 C 445.686153 447.4917 445.643185 447.584799 445.750606 448.086101 C 445.858028 448.587403 446.094356 449.697429 446.459591 451.416179 C 446.831987 453.127767 447.698523 455.913574 449.073523 459.7736 C 450.448523 463.626464 451.938106 468.009276 453.542272 472.914875 C 455.146439 477.820473 456.793574 483.213051 458.476517 489.092607 C 460.166621 494.972164 461.620397 499.992346 462.837844 504.13883 C 464.055292 508.285314 464.97912 510.498204 465.609328 510.763178 C 466.239537 511.035313 466.633417 509.474116 466.790969 506.086746 C 466.94136 502.699377 466.547479 498.24495 465.602167 492.730628 C 464.656855 487.209144 463.475214 481.68766 462.064407 476.159015 C 460.6536 470.63037 459.142532 465.588703 457.538366 461.026855 C 455.927038 456.465006 454.451777 452.583496 453.126908 449.368002 C 451.794877 446.159669 450.942663 443.875164 450.563106 442.535971 C 450.19071 441.189617 449.990189 440.473472 449.968705 440.394696 C 449.947221 440.308758 449.961544 440.337404 450.025997 440.480633 C 450.083288 440.616701 450.620398 441.834149 451.623002 444.132976 C 452.632767 446.431804 453.936153 449.582846 455.540319 453.5861 C 457.144486 457.596517 458.820267 462.151204 460.567662 467.257323 C 462.315058 472.363442 464.069615 477.841957 465.831334 483.671384 C 467.600214 489.507972 469.161411 494.127112 470.536411 497.521643 C 471.911411 500.923335 473.114536 502.491695 474.152947 502.241044 C 475.191359 501.983231 475.864536 500.01383 476.172478 496.332841 C 476.487583 492.64469 476.494744 487.961097 476.201124 482.267738 C 475.907504 476.574379 475.363234 471.103026 474.582635 465.860839 C 473.802036 460.61149 472.999953 456.758626 472.176385 454.287923 C 471.352817 451.824382 470.765578 450.435059 470.407505 450.134278 C 470.056594 449.833497 469.877557 450.04834 469.870396 450.793132 C 469.863234 451.530762 470.414667 453.070476 471.517531 455.390788 C 472.627557 457.718262 474.045526 461.062662 475.778598 465.42399 C 477.511671 469.792479 479.330681 474.884275 481.235629 480.713702 C 483.147738 486.535967 485.016879 492.394039 486.857373 498.273596 C 488.697868 504.160314 490.359326 508.213699 491.827425 510.448074 C 493.302685 512.675287 494.55594 513.126459 495.601513 511.801589 C 496.647086 510.469558 497.284455 507.268387 497.506461 502.190913 C 497.728466 497.11344 497.628205 491.341305 497.198518 484.874509 C 496.768831 478.407713 495.887971 471.976724 494.563102 465.581542 C 493.238232 459.18636 491.984977 454.323731 490.803336 450.97933 C 489.621696 447.642091 489.027295 446.109539 489.027295 446.388836 C 489.027295 446.660971 489.027295 447.348471 489.027295 448.444174 C 489.020133 449.547038 489.815055 452.11084 491.404899 456.142741 C 492.994742 460.174641 494.742138 464.937011 496.639924 470.429849 C 498.537711 475.922687 500.492788 481.902504 502.51232 488.383623 C 504.524689 494.857581 506.472606 501.353023 508.348907 507.869949 C 510.232371 514.386876 511.922475 519.127761 513.426381 522.092604 C 514.930287 525.050286 516.219349 526.303541 517.30073 525.852369 C 518.374948 525.401197 519.026641 523.131015 519.262969 519.048985 C 519.492136 514.959792 519.112578 509.402501 518.109974 502.377111 C 517.114532 495.351721 515.753855 488.047035 514.035105 480.455889 C 512.323516 472.864744 510.934194 467.328938 509.874298 463.848469 C 508.814402 460.368001 508.16271 458.219564 507.912059 457.403157 C 507.668569 456.593913 507.518178 456.200033 507.47521 456.228678 C 507.425079 456.250163 507.303335 456.321777 507.095652 456.436361 C 506.895132 456.550944 507.124298 457.797038 507.783152 460.174641 C 508.442006 462.552245 509.731069 465.946776 511.657501 470.343911 C 513.583933 474.748208 515.768178 479.603676 518.203073 484.924639 C 520.64513 490.238441 523.230416 496.175289 525.966093 502.720861 C 528.694609 509.266433 531.20828 515.432448 533.521431 521.211745 C 535.82742 526.98388 537.782498 530.879713 539.393826 532.899244 C 541.005154 534.918775 542.30854 535.319816 543.311144 534.116691 C 544.313748 532.913567 544.822211 529.970207 544.829373 525.300937 C 544.836534 520.624505 544.199164 514.85237 542.910102 507.977371 C 541.628201 501.102372 540.167264 494.492346 538.541613 488.147295 C 536.915962 481.802243 535.734321 477.476723 534.996691 475.170734 C 534.266223 472.864744 533.836535 471.532713 533.721952 471.167479 C 533.607369 470.809406 533.542915 470.637531 533.528592 470.666177 C 533.507108 470.687661 533.449816 470.78076 533.349556 470.938312 C 533.242134 471.088703 533.51427 472.148599 534.165962 474.110838 C 534.817655 476.073077 536.042264 478.973468 537.83979 482.826332 C 539.637316 486.672035 541.692654 491.104977 544.005805 496.13232 C 546.311794 501.159663 548.718044 506.7456 551.231716 512.875808 C 553.738226 519.013177 556.194606 525.229322 558.593694 531.531405 C 560.999944 537.826326 562.997991 542.638826 564.587834 545.968904 C 566.177678 549.298982 567.36648 550.645336 568.15424 550.022289 C 568.934839 549.39208 569.328719 546.699372 569.314396 541.937003 C 569.300073 537.174634 568.727157 531.381015 567.588485 524.556145 C 566.456975 517.731276 565.232365 511.078282 563.914657 504.590002 C 562.60411 498.101721 561.637314 493.840654 560.999944 491.799638 C 560.369736 489.765784 559.925725 488.347816 559.675074 487.545732 C 559.431585 486.750811 559.274033 486.364092 559.202418 486.407061 C 559.137965 486.442868 559.023382 486.507321 558.851507 486.60042 C 558.679632 486.693519 558.693955 487.330889 558.872991 488.519691 C 559.059189 489.701331 559.796819 491.41292 561.071558 493.654456 C 562.353459 495.895992 563.864527 498.610185 565.604761 501.804195 C 567.352157 504.991043 569.249943 508.70784 571.312443 512.947423 C 573.374943 517.187006 575.494734 522.164219 577.678979 527.886223 C 579.863223 533.615389 581.689395 538.578279 583.164655 542.774894 C 584.639915 546.971508 585.685488 549.055492 586.315697 549.034008 C 586.945905 549.005362 587.196556 547.007315 587.081973 543.047029 C 586.960228 539.086743 586.401634 534.317212 585.406191 528.738437 C 584.41791 523.166823 583.372337 517.752761 582.283796 512.496251 C 581.195254 507.239741 580.357364 503.050288 579.755801 499.942216 C 579.1614 496.834143 578.831973 495.144039 578.781843 494.886227 C 578.731713 494.628414 578.781843 494.664221 578.939395 495.007971 C 579.089786 495.351721 580.078067 497.55745 581.897077 501.63232 C 583.723249 505.71435 586.287051 511.665522 589.602806 519.492995 C 592.911399 527.32763 595.417909 533.164218 597.129498 537.017082 C 598.833924 540.869946 600.352154 543.54117 601.691346 545.030753 C 603.030539 546.520336 604.06895 547.386872 604.80658 547.6232 C 605.537049 547.859529 606.074158 547.845206 606.410747 547.580232 C 606.747335 547.308096 607.083924 547.186352 607.420512 547.214997 C 607.749939 547.250805 608.509054 548.188956 609.697856 550.036612 C 610.879496 551.891429 612.032491 554.011221 613.142517 556.403147 C 614.252543 558.795074 615.097595 560.520986 615.677673 561.588043 C 616.250589 562.647939 616.64447 563.056142 616.84499 562.805491 C 617.052673 562.547678 616.393819 558.028798 614.882751 549.24169 C 613.371683 540.454581 612.354756 535.054842 611.846293 533.035311 C 611.330668 531.022942 611.008402 529.741041 610.865173 529.189609 C 610.729106 528.645338 610.614522 528.45914 610.528585 528.645338 C 610.442647 528.824374 610.249288 529.2469 609.934184 529.920077 C 609.61908 530.586093 609.440043 532.655754 609.404236 536.1219 C 609.361267 539.588045 609.568949 543.233227 610.01296 547.050284 C 610.464132 550.867341 611.14447 554.777497 612.061137 558.787913 C 612.977803 562.798329 613.923116 566.615386 614.918558 570.253407 C 615.906839 573.891427 616.637308 576.347807 617.102803 577.629708 C 617.575459 578.91877 617.833272 579.620593 617.883402 579.749499 C 617.92637 579.878406 617.947855 579.856921 617.933532 579.670723 C 617.912048 579.491687 617.840433 578.496244 617.697204 576.691557 C 617.553975 574.879708 616.84499 571.513823 615.563089 566.58674 C 614.28835 561.652496 612.748637 556.725413 610.943949 551.805492 C 609.139262 546.878409 607.191346 542.896638 605.093038 539.86018 C 602.994731 536.823722 600.932232 535.076327 598.891216 534.632316 C 596.850201 534.181144 594.902284 534.202629 593.054628 534.689608 C 591.206972 535.183749 589.545514 536.064608 588.077415 537.346509 C 586.602155 538.621248 585.341738 540.404451 584.296166 542.681795 C 583.250593 544.9663 582.333926 547.630362 581.539004 550.66682 C 580.744083 553.710439 580.14252 556.925934 579.734317 560.320465 C 579.333275 563.714996 579.089786 566.19286 579.018171 567.768381 C 578.946557 569.33674 578.910749 570.167469 578.910749 570.253407 L 578.903588 570.339344 L 578.910749 570.310698 C 578.910749 570.267729 578.953718 569.845203 579.032494 569.035959 C 579.11127 568.233875 579.197208 565.992339 579.297468 562.31135 C 579.397729 558.630361 579.361921 554.4982 579.190046 549.900544 C 579.018171 545.302888 578.595645 541.220857 577.922468 537.64729 C 577.256453 534.073723 576.461531 531.867994 575.552026 531.030103 C 574.642521 530.192213 573.725854 530.6219 572.802026 532.304843 C 571.871037 533.994947 571.0045 536.394035 570.195255 539.494946 C 569.386011 542.603019 568.655542 546.011872 568.003849 549.742992 C 567.352157 553.46695 566.843693 557.140778 566.478459 560.778798 C 566.113225 564.409657 565.898381 567.553537 565.826766 570.210438 C 565.762313 572.867339 565.726506 574.270984 565.719344 574.414213 L 565.712183 574.521635 L 565.705022 574.407052 C 565.69786 574.263823 565.640568 572.82437 565.518824 570.095854 C 565.397079 567.374501 564.96023 563.707834 564.201115 559.103017 C 563.442001 554.4982 562.367782 549.943513 560.97846 545.446117 C 559.589137 540.94156 557.93484 537.74755 556.029892 535.856926 C 554.117783 533.973462 552.198512 533.336092 550.27208 533.959139 C 548.338487 534.582186 546.591091 536.035962 545.01557 538.306144 C 543.447211 540.583488 542.16531 543.118644 541.169868 545.925935 C 540.174425 548.733226 539.422472 551.576325 538.899686 554.455231 C 538.384061 557.341298 538.190701 560.213043 538.319608 563.077626 C 538.448514 565.942209 539.085884 568.119292 540.238878 569.594552 C 541.384711 571.076974 542.795519 571.535307 544.4713 570.969552 C 546.147081 570.403797 547.908799 568.770985 549.749294 566.085438 C 551.59695 563.39273 553.344346 560.635569 554.991481 557.828278 C 556.638616 555.013825 558.249944 552.743643 559.825465 551.024893 C 561.408147 549.306143 562.883407 548.489737 564.27273 548.589997 C 565.654891 548.683096 567.044214 549.785961 568.440698 551.891429 C 569.837183 553.996898 572.250594 558.229319 575.666609 564.574371 C 579.082624 570.926584 581.553327 575.466948 583.071556 578.195463 C 584.596947 580.93114 585.943301 582.821765 587.11778 583.88166 C 588.292259 584.934395 589.194603 584.805488 589.817649 583.494942 C 590.447858 582.184395 590.791608 579.642077 590.856061 575.860828 C 590.913352 572.079578 590.770123 568.004709 590.41205 563.643381 C 590.061139 559.282053 589.667259 555.780101 589.244733 553.130361 C 588.815045 550.480622 588.449811 548.933747 588.141868 548.496898 C 587.833926 548.052888 587.61192 548.253409 587.483014 549.105622 C 587.346946 549.957836 587.261009 551.963044 587.225202 555.121247 C 587.189394 558.286611 586.902936 561.272939 586.365827 564.08023 C 585.821556 566.887521 585.033796 569.644683 583.988223 572.358875 C 582.949811 575.065906 581.718041 577.20002 580.292911 578.754057 C 578.874942 580.315254 577.34239 581.08153 575.702416 581.052885 C 574.069604 581.0314 572.350854 580.186348 570.567651 578.503406 C 568.784448 576.827625 566.772079 574.972807 564.530543 572.946115 C 562.289006 570.919422 559.861272 568.978667 557.240179 567.131011 C 554.619085 565.290516 552.320257 563.571767 550.350856 561.981923 C 548.374294 560.384918 546.770128 558.795074 545.524034 557.198069 C 544.285102 555.593903 543.282498 553.746247 542.523383 551.633617 C 541.77143 549.520987 541.205675 547.644685 540.826118 546.004711 C 540.453722 544.357576 540.174425 543.376456 539.988227 543.061352 C 539.802029 542.739086 539.701769 543.462394 539.680285 545.231274 C 539.665962 546.992992 539.85216 549.19156 540.238878 551.826976 C 540.625597 554.455231 541.076769 556.997548 541.599555 559.446767 C 542.11518 561.895985 542.544868 563.714996 542.881456 564.889475 C 543.218045 566.071115 543.411404 566.737131 543.454373 566.88036 C 543.497341 567.030751 543.518826 567.073719 543.525987 567.016428 C 543.533149 566.966297 543.568956 566.715646 543.626248 566.264475 C 543.683539 565.820464 543.38992 564.330881 542.738227 561.802887 C 542.093696 559.274892 541.119738 556.26708 539.823514 552.772288 C 538.52729 549.284659 537.166613 546.004711 535.748644 542.932446 C 534.330676 539.86018 533.106066 537.718905 532.067655 536.508618 C 531.022082 535.298332 530.348905 535.026196 530.033801 535.685051 C 529.725858 536.343905 529.718697 537.919425 530.019478 540.404451 C 530.320259 542.896638 530.921822 545.85432 531.817004 549.284659 C 532.705025 552.707835 533.693306 556.252757 534.774686 559.912262 C 535.848905 563.571767 536.851509 566.844553 537.761014 569.73062 C 538.677681 572.616688 539.350858 574.421375 539.773384 575.130359 C 540.19591 575.839343 540.468045 576.297677 540.582628 576.498198 C 540.704373 576.70588 540.761665 576.548328 540.747342 576.025541 C 540.733019 575.509916 540.697212 574.342599 540.647081 572.53075 C 540.596951 570.718901 540.016873 567.775542 538.892524 563.707834 C 537.775337 559.632965 536.536405 555.858877 535.168566 552.371247 C 533.800728 548.876456 532.375598 546.319815 530.886015 544.687003 C 529.403593 543.05419 528.071562 542.531404 526.911406 543.111482 C 525.744088 543.698722 524.877552 545.123852 524.318958 547.394034 C 523.753203 549.664216 523.44526 552.278148 523.387968 555.23583 C 523.330677 558.193512 523.416614 561.122548 523.652942 564.022938 C 523.882109 566.916167 524.275989 569.916818 524.834583 573.024891 C 525.400338 576.125802 526.037708 578.854317 526.753854 581.203275 C 527.469999 583.552233 528.150338 585.027494 528.794869 585.614733 C 529.432239 586.209134 529.969348 586.252103 530.384713 585.743639 C 530.807239 585.235176 531.050728 583.695462 531.129504 581.117338 C 531.20828 578.546374 530.871692 575.237781 530.1269 571.184396 C 529.382109 567.131011 528.451119 562.819814 527.333932 558.250804 C 526.216744 553.681794 524.619739 548.740388 522.564401 543.433748 C 520.501901 538.119946 518.045521 532.999504 515.202422 528.072421 C 512.359324 523.145338 509.824168 519.442865 507.596954 516.972162 C 505.369741 514.50862 503.722606 513.32698 502.655549 513.441563 C 501.588492 513.548985 500.858023 514.573074 500.44982 516.499506 C 500.041617 518.433099 499.869742 520.968255 499.919872 524.119297 C 499.962841 527.277499 500.292268 530.779452 500.89383 534.632316 C 501.502554 538.478019 502.147085 542.159008 502.841747 545.6538 C 503.536408 549.155752 504.202424 552.048981 504.832632 554.340648 C 505.470002 556.639476 505.914012 558.064606 506.164663 558.623199 C 506.415314 559.188954 506.551382 559.496897 506.580027 559.554189 C 506.608673 559.61148 506.608673 559.589996 506.587189 559.496897 C 506.565705 559.396637 506.458283 558.87385 506.264923 557.928538 C 506.071564 556.983226 505.305288 554.949372 503.966095 551.819815 C 502.626903 548.690258 500.965445 544.751456 498.974559 540.010571 C 496.976513 535.262525 495.057242 530.901197 493.216748 526.926588 C 491.376253 522.944817 489.800732 520.216302 488.504508 518.741042 C 487.208285 517.25862 486.241488 516.943516 485.604118 517.788568 C 484.966748 518.63362 484.615837 520.481276 484.551384 523.345859 C 484.486931 526.217604 484.873649 532.877759 485.71154 543.333487 C 486.549431 553.796377 487.108024 561.631012 487.401644 566.844553 C 487.695264 572.058094 487.867139 575.717599 487.917269 577.808744 C 487.974561 579.89989 488.003206 581.017077 488.003206 581.153145 C 488.010368 581.289213 488.003206 581.296374 487.981722 581.174629 C 487.960238 581.052885 487.781201 580.057442 487.451774 578.188302 C 487.122347 576.326323 486.420524 572.58088 485.331983 566.959136 C 484.243441 561.337392 483.033155 555.321767 481.701124 548.926586 C 480.369093 542.524243 479.001254 537.103019 477.611931 532.655754 C 476.215447 528.21565 474.883416 525.55875 473.608677 524.699375 C 472.333937 523.84 471.001906 523.725416 469.612583 524.355625 C 468.22326 524.985833 466.955682 526.009921 465.795526 527.420729 C 464.642532 528.831536 463.733027 530.57177 463.081334 532.627108 C 462.42248 534.689608 461.985631 537.002759 461.770787 539.580884 C 461.555943 542.151847 461.498652 544.729972 461.598912 547.322419 C 461.699173 549.914867 462.021438 551.826976 462.565709 553.07307 C 463.10998 554.312002 463.625605 554.713043 464.105422 554.269033 C 464.578079 553.825023 464.857375 552.185049 464.936151 549.363435 C 465.007766 546.54182 464.628209 543.140128 463.79748 539.179842 C 462.959589 535.212394 461.770787 531.338046 460.223912 527.563958 C 458.677037 523.782708 456.850866 520.653151 454.752559 518.182448 C 452.64709 515.704584 450.87821 514.222162 449.438757 513.728022 C 447.999304 513.241042 446.989539 513.656407 446.387976 514.9956 C 445.793575 516.327631 445.664669 518.690912 445.994096 522.085443 C 446.323523 525.472812 447.132768 529.44026 448.428992 533.973462 C 449.718054 538.506665 451.250606 543.204581 453.026647 548.052888 C 454.802689 552.908356 456.600215 557.205231 458.426386 560.964996 C 460.252558 564.7176 461.799433 567.109527 463.05985 568.140777 C 464.320266 569.179188 465.236933 568.856922 465.809849 567.188303 C 466.382766 565.519683 466.583287 562.612131 466.40425 558.472809 C 466.218052 554.333486 465.809849 549.87906 465.165318 545.123852 C 464.520787 540.368644 463.969355 536.050285 463.511021 532.154452 C 463.05985 528.265781 462.802037 525.866692 462.730422 524.957187 C 462.658808 524.047682 462.623001 523.524896 462.608678 523.388828 C 462.601516 523.245599 462.651646 523.288567 462.759068 523.503411 C 462.86649 523.725416 463.289016 524.556145 464.012323 525.995598 C 464.735631 527.435051 466.189407 530.256666 468.36649 534.467603 C 470.543573 538.671378 473.057244 543.24755 475.914666 548.188956 C 478.764926 553.130361 481.751254 557.656403 484.887972 561.781402 C 488.017529 565.89924 490.96805 568.885568 493.739534 570.733224 C 496.511018 572.588042 498.809846 572.960437 500.643179 571.850412 C 502.476512 570.747547 503.629507 568.112131 504.116486 563.965647 C 504.596304 559.812001 504.732371 555.121247 504.510366 549.87906 C 504.295522 544.644034 503.665314 540.117993 502.619741 536.300936 C 501.574169 532.483879 500.385367 529.998853 499.053336 528.838697 C 497.728466 527.67138 496.532502 527.062656 495.472607 527.012525 C 494.412711 526.962395 493.603466 527.606926 493.044873 528.946119 C 492.486279 530.27815 492.135367 532.39078 491.992138 535.284009 C 491.841748 538.170076 491.762972 541.707836 491.748649 545.890128 C 491.734326 550.072419 491.798779 554.412262 491.94917 558.902496 C 492.106722 563.39273 492.378857 567.12385 492.78706 570.081532 C 493.188102 573.046375 493.510367 574.793771 493.746695 575.33088 C 493.983024 575.867989 494.126253 576.183093 494.169221 576.276192 C 494.205029 576.369291 494.197867 576.254708 494.140576 575.946765 C 494.083284 575.631661 493.889925 574.571765 493.553336 572.759917 C 493.223909 570.948068 492.228466 568.706532 490.57417 566.042469 C 488.919873 563.371246 486.79292 560.828928 484.200472 558.408356 C 481.608025 555.987783 478.471306 553.187653 474.797479 550.007966 C 471.130812 546.828279 467.070266 542.603019 462.630162 537.317863 C 458.190058 532.032707 454.222611 526.890781 450.720658 521.899245 C 447.218705 516.907709 444.740841 513.513178 443.279904 511.722813 C 441.826128 509.932449 440.780555 509.187657 440.157508 509.488439 C 439.5273 509.78922 439.140581 510.884923 438.99019 512.775548 C 438.832638 514.666172 439.004513 516.993646 439.498654 519.750807 C 439.992795 522.507969 441.210242 527.098463 443.150997 533.515129 C 445.091752 539.938956 446.50256 544.422029 447.376257 546.978669 C 448.257117 549.53531 448.923132 550.831533 449.374304 550.881664 C 449.818314 550.924632 449.947221 549.334789 449.753861 546.112133 C 449.567663 542.889477 448.81571 538.685701 447.505164 533.507967 C 446.201778 528.337395 444.583289 523.288567 442.656857 518.375808 C 440.730425 513.455886 438.646441 509.624506 436.419227 506.881668 C 434.184852 504.13883 432.344358 502.81396 430.890582 502.907059 C 429.443967 503.000158 428.484332 504.346512 428.004514 506.960444 C 427.524697 509.567215 427.431598 513.190912 427.710895 517.824375 C 427.997353 522.465 428.563108 527.449374 429.393837 532.791822 C 430.231728 538.134269 431.191363 543.5913 432.25842 549.155752 C 433.332639 554.720205 434.170529 558.966949 434.772092 561.895985 C 435.366493 564.825022 435.703081 566.464995 435.774696 566.815907 C 435.846311 567.166818 435.896441 567.310047 435.917925 567.238433 C 435.93941 567.166818 436.032508 566.837391 436.204383 566.24299 C 436.376258 565.648589 436.197222 562.862782 435.674436 557.885569 C 435.151649 552.908356 434.206337 546.720857 432.838498 539.308748 C 431.47066 531.903801 429.887978 525.565911 428.104775 520.295078 C 426.31441 515.024245 424.423786 511.26448 422.418578 509.00146 C 420.413369 506.7456 418.623005 505.32047 417.047484 504.740392 C 415.464802 504.153153 414.283162 504.346512 413.502563 505.298986 C 412.714802 506.258621 412.249308 508.385574 412.11324 511.687006 C 411.970011 514.988438 412.220662 519.07763 412.872355 523.961744 C 413.516886 528.838697 414.440714 533.951978 415.643839 539.287264 C 416.839802 544.615388 418.164672 549.227367 419.604125 553.1232 C 421.043578 557.011871 422.361286 559.482574 423.550088 560.528147 C 424.73889 561.57372 425.634072 561.373199 426.235634 559.919423 C 426.837197 558.458486 427.102171 556.045075 427.044879 552.672028 C 426.987588 549.298982 426.400348 544.973461 425.290322 539.688305 C 424.173135 534.410311 422.690713 529.182447 420.843057 524.019036 C 418.988239 518.848464 416.818318 514.043126 414.32613 509.603022 C 411.841105 505.17008 409.599568 501.797033 407.608683 499.498205 C 405.617798 497.192216 404.078085 495.802893 402.982382 495.337398 C 401.879517 494.871904 401.012981 494.628414 400.361288 494.614091 C 399.716757 494.599768 399.244101 495.308753 398.943319 496.741044 C 398.642538 498.166174 398.470663 500.500809 398.442017 503.730627 C 398.413372 506.967606 398.585247 510.598465 398.971965 514.630365 C 399.351523 518.655104 399.874309 522.629713 400.547486 526.532708 C 401.220663 530.442864 401.901001 533.486483 402.595663 535.677889 C 403.290324 537.862134 403.863241 539.093904 404.328736 539.373201 C 404.787069 539.645337 405.03772 538.886222 405.080689 537.095858 C 405.130819 535.298332 404.69397 532.713046 403.770142 529.325676 C 402.846314 525.945468 401.607382 522.157057 400.046184 517.953282 C 398.484986 513.756667 396.580038 509.466954 394.324179 505.098465 C 392.075482 500.729976 389.962852 497.471513 388.000612 495.323075 C 386.031211 493.1818 384.534467 492.207841 383.503217 492.408362 C 382.471967 492.608883 381.841759 493.933753 381.619754 496.382971 C 381.397748 498.83219 381.440717 502.054846 381.741498 506.036616 C 382.049441 510.025548 383.016238 517.000808 384.64905 526.962395 C 386.281862 536.931144 387.34892 543.777498 387.864545 547.508617 C 388.373008 551.239737 388.695274 553.481273 388.831341 554.233226 C 388.967409 554.99234 389.039024 555.386221 389.046185 555.429189 L 389.046185 555.443512 L 389.024701 555.300283 C 389.003216 555.171377 388.795534 553.925283 388.408815 551.554841 C 388.022097 549.184398 387.076784 545.431794 385.572878 540.304191 C 384.068972 535.176587 382.249962 529.726718 380.123009 523.94026 C 377.996056 518.160964 375.690067 512.897292 373.197879 508.163569 C 370.705692 503.422684 368.557255 500.078283 366.752567 498.14469 C 364.940719 496.203935 363.558557 495.065263 362.598922 494.714352 C 361.639287 494.36344 360.958948 494.685706 360.565068 495.666825 C 360.164026 496.647945 360.099573 498.739091 360.357386 501.954585 C 360.62236 505.162918 361.259729 509.223465 362.269495 514.129063 C 363.286422 519.041823 364.460901 524.412916 365.792932 530.263827 C 367.124963 536.114738 368.414026 541.263826 369.652958 545.70393 C 370.89189 550.151195 371.951786 553.015778 372.818322 554.297679 C 373.69202 555.57958 374.286421 555.257314 374.615848 553.316559 C 374.945275 551.382966 374.995405 548.475414 374.759077 544.601065 C 374.515588 540.719555 374.014286 536.479972 373.233687 531.875155 C 372.460249 527.263176 371.586551 522.916172 370.612593 518.834141 C 369.631473 514.744949 368.664677 511.393386 367.705041 508.772293 C 366.738245 506.151199 365.943323 504.274897 365.305953 503.143387 C 364.661422 502.011877 364.181604 501.295731 363.852177 501.009273 C 363.52275 500.715653 363.322229 500.837398 363.257776 501.381669 C 363.186162 501.918778 363.465458 503.637528 364.095667 506.537918 C 364.718714 509.438308 365.800094 513.155105 367.325484 517.702631 C 368.850875 522.242995 370.583947 526.98388 372.539025 531.925285 C 374.486942 536.866691 376.621056 541.442863 378.94853 545.6538 C 381.268842 549.864737 383.496055 552.77945 385.615847 554.390778 C 387.735638 556.009267 389.540326 556.596507 391.044232 556.159658 C 392.540976 555.715648 393.636679 554.354971 394.324179 552.063304 C 395.011679 549.778799 395.419882 547.035961 395.548789 543.849112 C 395.677695 540.662264 395.749309 537.976717 395.763632 535.799634 C 395.777955 533.615389 395.828085 532.269035 395.921184 531.746249 C 396.014283 531.230624 396.436809 531.688957 397.188762 533.135572 C 397.947877 534.582186 398.814413 536.408358 399.788371 538.62841 C 400.76233 540.848462 401.743449 543.190258 402.738892 545.6538 C 403.734335 548.117341 404.615194 550.702627 405.374308 553.402497 C 406.133423 556.109528 406.713501 558.666168 407.121704 561.093902 C 407.522746 563.521636 407.809204 565.498199 407.973918 567.037912 C 408.138631 568.570464 408.238891 569.565907 408.289022 570.017078 C 408.339152 570.46825 408.224569 570.511219 407.952433 570.153146 C 407.680298 569.787912 407.078735 569.000151 406.147746 567.775542 C 405.216756 566.543771 404.128215 565.039865 402.867798 563.24234 C 401.614543 561.451975 400.117799 559.547027 398.377564 557.541819 C 396.63733 555.52945 394.617799 553.459788 392.318971 551.311351 C 390.020143 549.170075 387.84306 547.42268 385.78056 546.069164 C 383.718061 544.715649 382.121056 544.063956 380.989545 544.106925 C 379.858035 544.149894 378.962853 545.088044 378.296837 546.928539 C 377.637983 548.761872 377.036421 549.800284 376.506473 550.036612 C 375.969363 550.27294 375.331994 550.358877 374.587202 550.294424 C 373.842411 550.229971 373.119103 550.015127 372.41728 549.649893 C 371.708296 549.284659 371.013635 548.597159 370.340458 547.580232 C 369.667281 546.570466 368.922489 544.192862 368.113244 540.44742 C 367.304 536.709139 366.308557 532.970858 365.119755 529.2469 C 363.930953 525.522942 362.348271 521.548333 360.371709 517.315912 C 358.395146 513.076329 356.633428 509.832189 355.086553 507.583491 C 353.539678 505.327632 352.300746 504.017085 351.369757 503.644689 C 350.438767 503.272293 349.722621 503.472814 349.199835 504.23909 C 348.68421 505.005366 348.39059 506.272944 348.304653 508.034663 C 348.225877 509.78922 348.455043 512.123855 348.97783 515.017084 C 349.507778 517.917474 350.252569 521.054193 351.205043 524.427239 C 352.150355 527.800286 353.067022 530.772291 353.94072 533.357577 C 354.814418 535.935702 355.444626 537.54703 355.831345 538.191561 C 356.218063 538.836092 356.461553 539.237134 356.54749 539.387524 C 356.640589 539.537915 356.662074 539.373201 356.611944 538.886222 C 356.568975 538.406404 356.440069 537.131665 356.232386 535.054842 C 356.031865 532.985181 355.179652 529.547681 353.690069 524.749505 C 352.193324 519.944167 350.338507 514.881016 348.132778 509.54573 C 345.919887 504.210444 343.606736 499.555497 341.200487 495.573726 C 338.794237 491.591956 336.882128 489.121253 335.471321 488.161618 C 334.060513 487.209144 333.093717 487.108884 332.563769 487.87516 C 332.033821 488.641436 331.768847 490.453284 331.78317 493.325029 C 331.790331 496.189612 332.993456 504.890783 335.406868 519.42138 C 337.813117 533.959139 339.195279 541.743644 339.567674 542.760571 C 339.94007 543.784659 340.162075 544.393383 340.226528 544.579581 C 340.298143 544.77294 340.33395 544.651196 340.341112 544.221508 C 340.348273 543.791821 340.369758 542.416821 340.405565 540.096508 C 340.441372 537.776196 339.94007 533.722811 338.894497 527.936353 C 337.848925 522.149896 336.466763 516.22737 334.740852 510.168777 C 333.022102 504.110184 330.923795 498.760575 328.445931 494.112789 C 325.968066 489.465003 323.497363 485.834144 321.026661 483.213051 C 318.563119 480.591957 316.665333 478.808754 315.347625 477.85628 C 314.029917 476.903806 313.091766 476.452635 312.533172 476.517088 C 311.974578 476.574379 311.609344 477.397947 311.437469 478.987791 C 311.265594 480.584796 311.229787 483.055499 311.330047 486.421384 C 311.430307 489.780107 311.695281 493.862138 312.13213 498.667476 C 312.561818 503.465653 312.934213 508.500157 313.242156 513.763829 C 313.55726 519.034662 313.75062 522.95914 313.829396 525.537265 C 313.915333 528.122551 313.958302 529.59065 313.972625 529.963046 C 313.979786 530.335442 313.915333 530.32828 313.757781 529.941562 C 313.607391 529.562004 313.01299 528.029452 311.960255 525.351067 C 310.907521 522.672682 309.57549 518.87711 307.971323 513.971511 C 306.374318 509.058751 304.591115 503.981278 302.636037 498.724768 C 300.68096 493.468258 298.818981 489.293128 297.064423 486.185056 C 295.309866 483.084144 293.956351 481.300941 293.003877 480.84977 C 292.044242 480.391436 291.385388 480.484535 291.027315 481.129066 C 290.669242 481.773598 290.468721 482.862139 290.432914 484.38753 C 290.397106 485.920082 290.776664 489.866045 291.578747 496.239742 C 292.38083 502.606278 293.0182 508.1206 293.490856 512.775548 C 293.963512 517.430495 294.292939 521.125807 294.471976 523.861484 C 294.658174 526.597161 294.758434 528.043775 294.765596 528.208489 C 294.779918 528.366041 294.78708 528.437655 294.78708 528.423333 C 294.78708 528.401848 294.815726 528.229973 294.858694 527.900546 C 294.901663 527.578281 294.421846 525.322421 293.404919 521.132969 C 292.395153 516.943516 291.106091 511.944819 289.53057 506.136876 C 287.962211 500.328934 286.171846 494.986487 284.166638 490.123857 C 282.154269 485.261228 280.106092 481.501462 278.014946 478.866046 C 275.930962 476.223468 274.183566 474.404458 272.772759 473.423338 C 271.369113 472.435057 270.201796 471.940916 269.285129 471.933755 C 268.361301 471.933755 267.602187 472.907713 267.000624 474.848468 C 266.399062 476.789223 265.969374 479.539223 265.697239 483.076983 C 265.432265 486.621904 265.253229 490.746904 265.16013 495.437659 C 265.074192 500.135575 265.024062 505.871903 265.009739 512.653803 C 265.002578 519.428542 265.002578 523.016432 265.002578 523.410312 C 264.995416 523.811354 264.995416 523.99039 264.988255 523.954583 C 264.988255 523.911614 264.938125 523.567864 264.852187 522.923333 C 264.76625 522.27164 264.393854 520.345208 263.720677 517.136875 C 263.054661 513.928542 262.159479 510.097163 261.049453 505.635574 C 259.939427 501.181148 258.714818 496.784013 257.375625 492.451331 C 256.036433 488.118649 254.718725 484.280108 253.415339 480.935707 C 252.111954 477.591306 251.123673 475.127765 250.450496 473.545083 C 249.777319 471.955239 249.419246 471.310708 249.369116 471.597166 C 249.326147 471.883625 249.204402 472.606932 249.018204 473.767088 C 248.832006 474.920083 248.75323 478.54378 248.774715 484.631019 C 248.803361 490.72542 248.810522 495.731279 248.817683 499.648596 C 248.817683 503.573075 248.810522 506.530757 248.789038 508.521642 C 248.760392 510.512527 248.75323 511.758621 248.746069 512.252761 C 248.738907 512.754063 248.7031 512.968907 248.638647 512.904454 C 248.574194 512.840001 248.402319 512.682449 248.144506 512.424636 C 247.879533 512.166824 247.213517 510.1831 246.160783 506.466304 C 245.108048 502.756668 243.818986 498.603023 242.307918 494.012529 C 240.796851 489.422034 238.992164 485.039222 236.901018 480.864093 C 234.802711 476.688963 232.618466 473.494953 230.341123 471.282062 C 228.063779 469.06201 226.223285 467.923339 224.8268 467.858886 C 223.430316 467.787271 222.334613 468.216958 221.53253 469.133625 C 220.730447 470.057453 220.15753 471.310708 219.81378 472.900552 C 219.462869 474.490395 219.262348 476.423989 219.190733 478.715655 C 219.12628 481.00016 219.104796 483.470863 219.12628 486.127764 C 219.154926 488.777503 219.305317 491.248206 219.570291 493.547034 C 219.842426 495.845862 220.093077 497.564612 220.336567 498.696122 C 220.580056 499.827632 220.737608 500.737137 220.816384 501.417476 C 220.902322 502.097814 220.809223 502.548986 220.544249 502.76383 C 220.286436 502.978674 219.76365 502.541825 218.990212 501.453283 C 218.223937 500.371903 217.300108 498.431148 216.233051 495.631018 C 215.173156 492.830888 214.120421 489.916175 213.089171 486.879717 C 212.057922 483.843259 211.198547 481.422686 210.52537 479.62516 C 209.852193 477.827635 209.401021 476.731931 209.171854 476.352374 C 208.935526 475.965656 208.785135 475.715005 208.706359 475.578937 C 208.627583 475.450031 208.584615 475.908364 208.570292 476.961098 C 208.56313 478.013832 208.548807 479.976072 208.520161 482.847816 C 208.498677 485.719561 208.484354 487.259274 208.484354 487.466956 L 208.477193 487.710446 L 208.477193 487.696123 C 208.470031 487.645993 208.427062 487.108884 208.348286 486.084795 C 208.26951 485.067868 208.226542 483.80029 208.212219 482.282061 C 208.205057 480.763832 208.140604 479.367348 208.011698 478.106931 " transform="matrix(0.545455, 0, 0, 0.545455, -60, -62.52)"/>
<path fill="none" stroke-width="33.14082" stroke-linecap="round" stroke-linejoin="round" stroke="rgb(0%, 0%, 0%)" stroke-opacity="1" stroke-miterlimit="10" d="M 311.401662 310.063328 C 314.044239 311.05161 317.102182 312.018406 320.575489 312.963719 C 324.055957 313.909031 328.567675 314.875828 334.117805 315.87127 C 339.675096 316.859552 345.504523 317.468276 351.627569 317.690281 C 357.743454 317.912286 363.501266 317.339369 368.893843 315.971531 C 374.293582 314.610854 378.991499 313.049656 382.994753 311.295099 C 386.990847 309.540542 390.550091 307.821792 393.658164 306.131688 C 396.766236 304.448746 399.229778 303.109553 401.055949 302.121272 " transform="matrix(0.545455, 0, 0, 0.545455, -60, -62.52)"/>
<path fill="none" stroke-width="33.14082" stroke-linecap="round" stroke-linejoin="round" stroke="rgb(0%, 0%, 0%)" stroke-opacity="1" stroke-miterlimit="10" d="M 343.506476 141.203319 C 350.417283 151.838084 344.451788 167.965686 330.186165 177.225451 C 315.920541 186.485216 298.761689 185.368028 291.858044 174.733264 C 284.954399 164.098499 290.919893 147.970897 305.185516 138.711132 C 319.443978 129.451367 336.602831 130.568555 343.506476 141.203319 Z M 343.506476 141.203319 " transform="matrix(0.545455, 0, 0, 0.545455, -60, -62.52)"/>
<path fill="none" stroke-width="33.14082" stroke-linecap="round" stroke-linejoin="round" stroke="rgb(0%, 0%, 0%)" stroke-opacity="1" stroke-miterlimit="10" d="M 291.858044 174.733264 C 303.996714 288.908383 295.761038 393.49431 267.143853 488.483883 " transform="matrix(0.545455, 0, 0, 0.545455, -60, -62.52)"/>
<path fill="none" stroke-width="33.14082" stroke-linecap="round" stroke-linejoin="round" stroke="rgb(0%, 0%, 0%)" stroke-opacity="1" stroke-miterlimit="10" d="M 343.506476 141.203319 C 440.136024 128.978711 508.377553 167.550322 548.238226 256.925313 " transform="matrix(0.545455, 0, 0, 0.545455, -60, -62.52)"/>
<path fill="none" stroke-width="33.14082" stroke-linecap="round" stroke-linejoin="round" stroke="rgb(0%, 0%, 0%)" stroke-opacity="1" stroke-miterlimit="10" d="M 548.238226 256.925313 C 561.494084 360.852386 542.523383 456.465006 491.340446 543.756013 " transform="matrix(0.545455, 0, 0, 0.545455, -60, -62.52)"/>
<path fill="none" stroke-width="33.14082" stroke-linecap="round" stroke-linejoin="round" stroke="rgb(0%, 0%, 0%)" stroke-opacity="1" stroke-miterlimit="10" d="M 469.777297 216.599145 C 469.412062 216.599145 468.896437 216.319848 468.216099 215.761254 " transform="matrix(0.545455, 0, 0, 0.545455, -60, -62.52)"/>
</svg>
